<?xml version="1.0" encoding="utf-8"?>
<!-- Generator: Adobe Illustrator 16.0.0, SVG Export Plug-In . SVG Version: 6.00 Build 0)  -->
<!DOCTYPE svg PUBLIC "-//W3C//DTD SVG 1.1//EN" "http://www.w3.org/Graphics/SVG/1.1/DTD/svg11.dtd">
<svg version="1.1" id="图层_1" xmlns="http://www.w3.org/2000/svg" xmlns:xlink="http://www.w3.org/1999/xlink" x="0px" y="0px"
	 width="566.93px" height="566.93px" viewBox="0 0 566.93 566.93" enable-background="new 0 0 566.93 566.93" xml:space="preserve">
<g id="Renmore">
	<path fill="none" stroke="#070102" stroke-miterlimit="10" d="M378.661,324.259c-1.5-0.333-10.834-2.997-10.834-2.997l-6.5-2.335
		c0,0-5.829,8.001-9.493,10.669c-1.5,2.332-5.5,5.666-5.672,7c-1,0.832-2.5,2.332-2.5,2.332l0.336,3h-2.5l-1.336,1.168l-0.5,2
		l1.672,0.332l-0.172,3.834l-0.664,0.334l-0.664,2.5l1,1.666l-2.336,4.334c0,0,1.164,0.166,3.664-2.668
		c1.5-0.666,4.672-1.832,4.672-1.832l4.5,0.5h1.5l-0.172-1.168l3-0.666l1.336,0.5l6.336-5.334l4.164,2.834l1.664,3.334l1.836,1.5
		c0,0,0.663,1.666-2.5,3.832c-0.664,1.168,1.502,0.168-1.664,2.834c-0.168,1.166,0.993,5,4.33,1.5c0.336-1.5,0.5-7.166,0.5-7.166
		l1.664-3l1.5-12.834v-4l2.336-5.166L378.661,324.259l-10.834-2.997"/>
</g>
<g id="Murroogh">
	<path fill="none" stroke="#070102" stroke-miterlimit="10" d="M389.161,326.593l5.339,1.087c0,0,3.75,2.125,6.875,2.875
		c5.875,3.75,15.125,6.5,15.125,6.5h4l0.25,1l10,0.5l1.375,2.25c0,0,4.375,2.75,5.75,3.875c1.5-0.75,10-1,11.625-1.125
		s4.5,2.5,4.5,2.5l5.875,0.625l1.375-1l4.5,1.5c0,0,6-0.125,7.5-0.125c2.25-1.625,11.125-4,14-5
		c10.125-3.875,14.375-0.875,14.375-0.875l1.536,1.08l2.5,1.004l0.173,3.334l-3.173,1.166l-2.661-0.5l-4,4.166l-4.166,1.668
		l-3.668,2.166l-2.165,1.334c0,0-1.335-1.334-2.167-1.168c-0.833,0.168-0.5-3.666-0.5-3.666l-3.833,0.666c0,0-3.5-3.332-4-2.666
		s-1.167,1.834-2.167,2s-1.334-2.166-2.167-1.666s-1.166-0.668-0.833,0.5c0.333,1.166-3.333,1.166-3.333,1.166l-1.335,1
		c0,0,2.5,1.666,1.5,1.834c-1,0.166-3.165,1.5-3.165,1.5l-0.835,2.5l-1.832,0.666l-0.834,1.666l-1.666,2.334l-1,2.834l0.666,2.163
		l1.334,1.5l2.166-1l-1,2.5c0,0-0.839,1.5-0.839,2s-1.5,0.833-1.5,0.833s4.673-0.501,5.173,0.333c0.5,0.835-0.339,1.335,1,2.335
		c1.327,1,1.16-1.5,1.827-1.5c0.673,0,1.674,2.5,2.339,2.832c0.662,0.334,1.5-0.166,1.334,0.668c-0.168,0.832-0.834,1.665-1.334,2.5
		c-0.5,0.834-1,2.834-2.666,1.666c-0.5-1.832-0.834-4.832-2.834-4.5c-1.166,1-3.5,2.5-6.166,1.5
		c-1.834-2.166-6.668-7.332-6.668-7.332s-2.665,1-5.165,2.5s-5.5,2.665-5.5,2.665s-2.001,0-2.835-0.5
		c-0.832-0.5-1.831,1.501-2.165,1.835c-0.335,0.332-3.667-0.502-4.167-1.335s-2,1.335-2,1.335s-2-0.835-2-0.335s-2,1.5-2,1.5
		s-2.666-1.667-2.333-1s-1.335,2-1.335,2s-4.665,0.001-4.665-5.665c-0.5-1.835-1.666-3.669-2-7.335
		c-0.5-2.165-1.167-3.665-1.167-3.665l1.333-1.335l0.334-3.665c0,0,0.834-1.835,4,1.665c1.833-0.5,4.166-2.665,4.166-2.665l0.5-5
		l-1.833-1.335l-0.333-3c0,0-2.333-1.831-4.5-0.165c-1,2.5-1.335,4.5-1.335,4.5s-0.665-3.166-2.165-2
		c-0.335,0.665-1.173,3.165-2.335,3.832c-1.165,0.668-5.832-0.332-5.832-0.332L405,356.428l-2.339-1l-0.161,1.834
		c0,0-5.674-1.5-7.339,1c-2.661,0.166-4.335,0.334-5,1.5c-1.661-0.166-4.835-0.666-19,3.5c0.339-1.5,0.5-7.166,0.5-7.166l1.666-3
		l1.5-12.834v-4l2.334-5.166l1.503-6.837C383.161,325.592,389.161,326.593,389.161,326.593"/>
</g>
<g id="Ballybane">
	<path fill="none" stroke="#070102" stroke-miterlimit="10" d="M379.161,282.095l1.964,1.71l5,0.125l2.375,0.375h6l2.625,0.875
		l3-0.375h6.125l12.5-8.25l6.375-0.125l10.375-0.125l8.5-4.875l9.5-2.167c0,0,6.66,0.833,8.327-0.667
		c1.673-1.5,24.5-20.333,24.5-20.333l0.335-1.333l7-4.167l13.5,22.667L505,266.764l-2.839,12.333l-10.834-2.167l-1.832,2.333
		l-1.25,3.792l-0.084,5.208l-0.5,2.166l-0.291,2.625l1.957,15.209l-2.165,6.166c0,0,0.665,2.661-0.167,3.5c2,0.668,11,0.5,11,0.5
		s3.498,6.821,5.167,23.825l-1.542-1.075c0,0-4.25-3-14.375,0.875c-2.875,1-11.75,3.375-14,5c-1.5,0-7.5,0.125-7.5,0.125l-4.5-1.5
		l-1.375,1l-5.87-0.625c0,0-2.875-2.625-4.5-2.5s-10.125,0.375-11.625,1.125c-1.375-1.125-5.75-3.875-5.75-3.875l-1.375-2.25
		l-10-0.5l-0.25-1h-4c0,0-9.25-2.75-15.125-6.5c-3.125-0.75-6.875-2.875-6.875-2.875l-5.339-1.087v-3.999l-1.5-4.833l-1.161-5.334
		l-1.673-8l-1.165-7.499l-5.165-13.333L379.161,282.095"/>
</g>
<g id="Baile_An_Bhriotaigh">
	<path fill="none" stroke="#070102" stroke-miterlimit="10" d="M368.161,269.097l1.666,0.332l9.334,12.667l1.959,1.71l5,0.125
		l2.375,0.375h6l2.625,0.875l3-0.375h6.125l12.5-8.25l6.375-0.125l10.375-0.125l8.5-4.875l-0.125-1.875v-1.875l-0.87-0.876
		l-0.25-2.625l-1.625-0.625l-1.75-8c0,0,0.25-1.25,1.375-1.25c1.125-0.125,2.5,0.125,2.5,0.125s0.75-0.875-0.25-1.875
		s-2.75-3.25-2.75-3.25s-2.5,0.5-2.25,1s-2.125-7.375-2.125-7.375l-2.125,1.75l-4.25-2l-1.5-1.5l-1,0.625c0,0-2.5-3.25-4.625-3.25
		s-2.25-0.5-2.25-0.5l-3.875-1.5c0,0-3.25-3-4.375-3.875s-3-0.875-4.125-0.25c-1.25-0.875-6-2.25-6-2.25l-10,12c0,2.5-2.5,4-6.5,6.5
		C385.25,248.68,372.161,261.93,368.161,269.097"/>
</g>
<g id="Mervue">
	<path fill="none" stroke="#070102" stroke-miterlimit="10" d="M358.161,282.264l5.666-4.667c0,0,0.334-1.333,4.334-8.5l1.666,0.332
		l9.334,12.667l-0.666,1.5l5.166,13.333l1.166,7.493l1.667,8l1.167,5.339l1.5,4.834v3.993c0,0-6-1.001-10.5-2.334
		c-1.5-0.333-10.834-2.993-10.834-2.993s1.667-5.666,2.5-7.339c3-6.5-1.833-11.827-2.667-13.327
		c-7.167-0.673-11.333-8.173-11.333-8.173l2.542-9.935L358.161,282.264"/>
</g>
<g id="Wellpark">
	<g id="Eyre_Squre">
		<path fill="none" stroke="#070102" stroke-miterlimit="10" d="M361.327,318.927l6.5,2.335"/>
		<path fill="none" stroke="#070102" stroke-miterlimit="10" d="M358.161,282.264"/>
		<path fill="none" stroke="#070102" stroke-miterlimit="10" d="M325.25,306.182c0.75,0.625,5.75-0.125,7.125-0.375
			s3.25,2.375,3.25,2.375v-0.002c0,0,1.535,1.914,3.375,3.247c1.834,1.333,5.827,1.167,5.827,1.167l5.173,1.5l11.327,4.833
			l6.5,2.335c0,0,1.667-5.666,2.5-7.334c3-6.5-1.833-11.832-2.667-13.332c-7.167-0.668-11.333-8.168-11.333-8.168l2.542-9.935
			l-0.708-0.229c0,0-1.001,1.666-3.334,3c-2.333,1.334-8.167,2.5-17.5,7.5c0,0-3.997,2.666-6.666,8
			c-1.834,2-5.415,5.416-5.415,5.416"/>
	</g>
</g>
<g id="Lough_Atalia_1_">
	<path fill="none" stroke="#070102" stroke-miterlimit="10" d="M361.327,318.927c0,0-5.827,8.001-9.493,10.669
		c-1.5,2.332-5.5,5.666-5.671,7c-1,0.832-2.5,2.332-2.5,2.332l0.337,3h-2.5l-1.337,1.168l-0.5,2l1.671,0.332l-0.171,3.834
		l-0.663,0.334l-0.666,2.5l1,1.666l-2.334,4.334"/>
	<path fill="none" stroke="#070102" stroke-miterlimit="10" d="M335.625,308.18c0,0,1.535,1.914,3.375,3.247
		c1.834,1.333,5.827,1.167,5.827,1.167l5.173,1.5l11.327,4.833"/>
	<path fill="none" stroke="#070102" stroke-miterlimit="10" d="M361.327,318.927c0,0-5.827,8.001-9.493,10.669
		c-1.5,2.332-5.5,5.666-5.671,7c-1,0.832-2.5,2.332-2.5,2.332l0.337,3h-2.5l-1.337,1.168l-0.5,2l1.671,0.332l-0.171,3.834
		l-0.663,0.334l-0.666,2.5l1,1.666l-2.334,4.334c0,0-1.249,0.771-2.837,0.104c-1.585-0.667-2.329-4.75-4.75-4.75
		c0,0-2.663-0.769-3.663-0.519s-1.837-1.064-5.337-1.731c-1.163,1.167-1.835,1.333-1.835,1.333l-1.328,0.75l-0.75,2.5l-1.922-0.083
		l-0.578,1.083l-1.75,1.25l-0.422-1l-1,0.834l-0.665-1.084l-1,0.917l-0.75-1.833l1.25-1.75L311,352.531l2.411-7l1.25,0.084
		c0,0,0.75,0.834,0.339-0.75c-0.423-0.5-1.375-1.311-1.375-1.311l-2.625-2.5l19-27.75l1.75,0.75l1.75-3.25l0.875,0.125l1.25-2.75"/>
</g>
<g id="An_Caisleán_1_">
	<path fill="none" stroke="#070102" stroke-miterlimit="10" d="M325.25,306.18l-4.875-5.75l-3.75-0.75l-1.5-2.5l-2.5-0.625
		l-3.125-5.625l-0.84-2.498l1.34-1.166c0,0,2-3.333,3.16-4.833c4.833-5,16-17.66,17-20.494c2.666-4.667,1.5-7.5,0.667-11.667
		c1.333-16.167,4-17.333,4-17.333s2.333-13.5,2.833-15.333c12.5-2.667,20.5-23.167,20.5-23.167l5.09-0.759l1.25-1.75l6.25-1.5
		l2.5-2.75c0,0,2.25,0.25,3,0.5s1,1.5,1,1.5l3.75-0.75v5.5l-1,1.25l-1.5,3.5l-2.5,0.75l-0.75,1.75l-2.5-1l-1-0.5
		c0,0-2.75,0.75-2.75,3l-4,2.5c0,0-1.75,1-0.25,5c-1.5,1.25-3.5,3.5-3.5,3.5l-3.25-1c0,0-1.5-1-6.5,4c0.5,1,0.5,1.75,4,1.5
		c2.75,0.25,8.5,2,8.5,2h3.25l4,2.5l7.75,3l14.5,3l0.5,3c0,0-5.5,2.5-2.25,10c0,2.5-2.5,4-6.5,6.5c0,0-13.084,13.25-17.084,20.417
		s-4.339,8.5-4.339,8.5l-5.661,4.667c0,0-1.006,1.666-3.339,3c-2.333,1.334-8.167,2.5-17.5,7.5c0,0-3.993,2.666-6.661,8
		C328.827,302.764,325.25,306.18,325.25,306.18z"/>
</g>
<g id="Mionlach">
	<path fill="none" stroke="#070102" stroke-miterlimit="10" d="M246.125,254.555c0,0,6,5.125,7.5,5.875s3.375,1.875,3.375,1.875
		l13.75,12.5c0,0,1.25,6.25,1,7.375c-3.125,3.5-2.375,10.375-2.375,10.375l-0.375,2l3.625,4.375l2.75,5.125c0,0,1-2.25,0.875-4.25
		c0.625-3.5,1.625-3.75,1.625-3.75s2.625,2.875,3.375,4.125c2.875,1.25,12.875,9.125,13.75,9s-0.625-1.875,0.375-2.625
		s2.5,2.125,3.25-0.25s-0.125-5.375,1-5.375s2.75-0.375,3.375,0s1.5,2.375,1.5,2.375l5-12.375l-0.84-2.498l1.34-1.166
		c0,0,2-3.333,3.16-4.833c4.833-5,16-17.66,17-20.494c2.666-4.667,1.5-7.5,0.667-11.667c1.333-16.167,4-17.333,4-17.333
		s2.333-13.5,2.833-15.333c12.5-2.667,20.5-23.167,20.5-23.167s-4.997-0.167-6.16-0.167c-0.173-2.833-3.673-3.5-3.673-3.5
		L346,189.439l-8-0.333l-1.839,2.167v1.667c0,0-0.834,1.5-3,3.667c-6.661-5.667-12.334,3.5-14,4.333c-7.161-3-13.5,1-17.161,3.667
		c-1.339-13.167-5.333-15.333-6.667-16.333s-8.5-2.167-8.5-2.167s-10-6.5-11.5-7.833c-3.333-7.5-4.667-7.5-4.667-7.5l-0.833,0.667
		l-1.5,0.167l1,1.333l-1.667,3.5l-1.167-1.333l-1.167,0.333l-0.167,2.333l-1.5,0.333l-0.667,0.5l1.333,1.167L264,182.605
		l-1.667-1.333l-1.667,1.167l-1.833-0.167c0,0,0,5-0.667,6s-2.5,2.333-3.167,3.667c-1.333,4.167-0.833,10.33-0.833,10.33
		l-1.333,1.833h-2.167l-1.5,1.667l-1,0.167l-3.333,1.833l-1,1h-1.167l-0.667,1.5l-0.833-0.167v2.333l1,7.833l1,0.83l0.5,4.333
		c0,0-1.833,4.333-2.833,6c-4.833,3-3.958,3.123-3.958,3.123l-0.125,11.375L246.125,254.555z"/>
</g>
<g id="Rahoon">
	<path fill="none" stroke="#070102" stroke-miterlimit="10" d="M231.625,334.055L223,336.68l-14-6l-2.75-5.25L149,306.68
		l-2.75-1.375l4.25-1.125l11-1.125l0.875-9.375l-0.5-0.75l1-1.375l-0.125-2.75l2-3.125l2.5,1.125c0,0,2.25-2.75,4.625-2.75
		c0.375-0.875,0.25-5.25,0.25-5.25s2.25-4.375,3.5-6.25l1.625-0.125v-1.75c0,0-0.25-3,2.75-9.875c1-0.25,2,0.375,2,0.375l6.375-9.75
		l1.5-0.375l1.625-2.875l-0.875-1.625l1.5-3.125l3.875,4.375l5.75,3l14.875-25.375l2.625,4.125l17.625,5l-0.125,11.375l9.375,8.625
		l-7,20.875l-8.25-3.625l-2.5,4.375L227,279.305c0,0,2.625,3.375,2.5,14.375c-0.125,2.25-3.25,18.75-5.125,23.625
		c-1.25,1.25-1.875,2-1.875,2l4.25,7.625L231.625,334.055"/>
</g>
<g id="Dangan">
	<path fill="none" stroke="#070102" stroke-miterlimit="10" d="M226.75,326.93c0,0,2.875-1.625,4.375-2.5
		c3.25-2.125,3-2.25,4.75-4.5c4.875-11.625,8.75-11.5,8.75-11.5l6.25-3.125l-2.375-5.875l11.625-5.75l0.5,2.25l8.75-3.375
		c0,0-0.75-6.875,2.375-10.375c0.25-1.125-1-7.375-1-7.375l-13.75-12.5c0,0-1.875-1.125-3.375-1.875s-7.5-5.875-7.5-5.875l-7,20.875
		l-8.25-3.625l-2.5,4.375L227,279.305c0,0,2.625,3.375,2.5,14.375c-0.125,2.25-3.25,18.75-5.125,23.625c-1.25,1.25-1.875,2-1.875,2
		L226.75,326.93z"/>
</g>
<g id="Newcastle">
	<path fill="none" stroke="#070102" stroke-miterlimit="10" d="M268,312.93l-0.5-2.75l10-2.375l-4.875-8.875L269,294.555l0.375-2
		l-8.75,3.375l-0.5-2.25l-11.625,5.75l2.375,5.875l-6.25,3.125c0,0-3.875-0.125-8.75,11.5c-1.75,2.25-1.5,2.375-4.75,4.5
		c-1.5,0.875-4.375,2.5-4.375,2.5l4.875,7.125l13.625-6.25l1.75-2.125l1.5-1.875l7-6.75l1.875-0.875c0,0,0,0,1.375,0
		C263.75,312.68,268,312.93,268,312.93"/>
</g>
<g id="Shantalla">
	<path fill="none" stroke="#070102" stroke-miterlimit="10" d="M269.375,341.93l1.625-2.875c0,0-2.625-9-2.75-13.25
		c0.375-1.25,1.375-6.5,1.375-6.5l-0.125-2.875l-1.125-1.375L268,312.93c0,0-4.25-0.25-9.25,3.25c-1.375,0-1.375,0-1.375,0
		l-1.875,0.875l-7,6.75l-1.5,1.875l-1.75,2.125l-13.625,6.25l2.75,1.625l16.75,3l3.875,1.5C255,340.18,264.5,338.93,269.375,341.93"
		/>
</g>
<g id="Nuns_Island">
	<path fill="none" stroke="#070102" stroke-miterlimit="10" d="M284.833,343.745c0,0-0.833-0.563-0.708-2.688s1-3.625,1.625-4.625
		c0.375-4.375-0.75-5.75-0.75-5.75l-0.25-3.125l1.5-5l-0.375-3.75c0,0,1.125-1.125,1.625-2.5c1.375-3.75,0.375-3.875,0.375-3.875
		l-10.375-4.625l-10,2.375l0.5,2.75l0.375,2.125l1.125,1.375l0.125,2.875c0,0-1,5.25-1.375,6.5c0.125,4.25,2.75,13.25,2.75,13.25
		l-1.625,2.875c-1.25,2.125-7,10.069-6.625,11.909c2.917,0.347,4.75,1.904,6.667,2.654c4-5.833,6.917-6.5,6.917-6.5l2.167-0.583
		l2.583,0.25l1.25-3.75l0.917-1.834L284.833,343.745z"/>
</g>
<g id="Taylors_Hill">
	<path fill="none" stroke="#070102" stroke-miterlimit="10" d="M234.5,351.342c2.417-0.498,4.833,2.498,4.833,2.498l3.583-0.083
		l4.25-0.417l1.167,0.5l1.583-0.416l1.083,0.333l1.667,0.25l1.917-0.417l6.417,0.167l1.75,0.083
		c-0.375-1.84,5.375-9.785,6.625-11.91c-4.875-3-14.375-1.75-14.375-1.75l-3.875-1.5l-16.75-3l-2.75-1.625L223,336.68
		c-0.5-0.25-4.458,4.543-4.625,5.875c-0.833,2.334-1.042,7.543-1.375,8.709c-0.75,1.822-2.666,6.41-3.25,8.41
		c0,0,4.75-1.165,5.75-1.499c0.917-0.75,2.5-1.833,2.5-1.833s5.417-1.5,6.583-2.25C233.667,351.009,234.5,351.342,234.5,351.342z"/>
</g>
<g id="Toghroinn_San_Niocláis">
	<path fill="none" stroke="#070102" stroke-miterlimit="10" d="M284.833,343.745c0,0,4.917-1.563,5.292-1.938s4.125-3.625,4.5-4.25
		s0.875-3.125,2.25-3.5s3.625-2.625,3.625-2.625l2.5-3.25l7.25-9.875l7.875-8.125c0,0,6.375-4.625,7.125-4l-4.875-5.75l-3.75-0.75
		l-1.5-2.5l-2.5-0.625l-3.125-5.625l-5,12.375c0,0-0.875-2-1.5-2.375s-2.25,0-3.375,0s-0.25,3-1,5.375s-2.25-0.5-3.25,0.25
		s0.5,2.5-0.375,2.625s-10.875-7.75-13.75-9c-0.75-1.25-3.375-4.125-3.375-4.125s-1,0.25-1.625,3.75c0.125,2-0.875,4.25-0.875,4.25
		l2.125,3.75l10.375,4.625c0,0,1,0.125-0.375,3.875c-0.5,1.375-1.625,2.5-1.625,2.5l0.375,3.75l-1.5,5l0.25,3.125
		c0,0,1.125,1.375,0.75,5.75c-0.625,1-1.5,2.5-1.625,4.625S284.833,343.745,284.833,343.745z"/>
</g>
<g id="Eyre_Squre_1_">
	<path fill="none" stroke="#070102" stroke-miterlimit="10" d="M284.833,343.745c0,0,0.584,5.167,0.834,6.333
		c0.667,3.333,4.166,4.841,4.166,4.841l14.244,6.833l9.548-18.195l-2.625-2.5l19-27.75l1.75,0.75l1.75-3.25l0.875,0.125l1.25-2.75
		c0,0-1.875-2.625-3.25-2.375s-6.375,1-7.125,0.375s-7.125,4-7.125,4l-7.875,8.125L303,328.18l-2.5,3.25c0,0-2.25,2.25-3.625,2.625
		s-1.875,2.875-2.25,3.5s-4.125,3.875-4.5,4.25S284.833,343.745,284.833,343.745z"/>
</g>
<g id="Claddagh">
	<path fill="none" stroke="#070102" stroke-miterlimit="10" d="M262.75,353.84l-0.583,3.5l-1,0.917l-1.5,0.833l0.083,3.917
		l1.333,4.583l-1.25,1.834l4,3.333l2.083,0.333l0.333,7.25l1.25-2.172c0,0,1.916-3.501,3.083-3.584s6.417,0.167,6.417,0.167
		l2.667-0.083l3.167,1.333c0,0,1.584-1.25,1.667-1.75s1.334,1.417,7.167-1.833c0.333-0.5,3.333-4.5,3.333-4.5l1.667-0.334
		l-0.084-1.916c0,0-0.334-1.917,7.494-3.917l-14.244-6.833c0,0-3.499-1.508-4.166-4.841c-0.25-1.166-0.834-6.333-0.834-6.333
		l-1.583,0.333l-0.917,1.834l-1.25,3.75l-2.583-0.25l-2.167,0.583c0,0-2.917,0.667-6.917,6.5
		C267.5,355.745,265.667,354.186,262.75,353.84z"/>
</g>
<g id="Salthill">
	<path fill="none" stroke="#070102" stroke-miterlimit="10" d="M234.5,351.342l-0.917,4.09l-0.25,2.082l0.25,1.25l-1.5,0.25
		l-0.917,7.834l0.167,2.334l0.167,2.916l0.25,1.25l0.167,4.334l-0.333,1.5l0.25,7.166l-0.417,0.416l-0.083,1.168l-0.167,1.916
		l-0.333,0.416l0.167,1.834l2.583,1.242l0.75-1.416l6.667-3l2.25-0.084l1.583-1.416l1.417,1.166l0.333-2.333l3.333-4.5l0.917-0.5
		l0.833-2.417l2.333-4l1,0.75l0.917-1.833l4.25,0.75l4.5,2.917l-0.5,2.333l1.25,0.917l0.833-0.334l-0.333-7.25l-2.083-0.333
		l-4-3.333l1.25-1.834l-1.333-4.583l-0.083-3.917l1.5-0.833l1-0.917l0.583-3.5l-1.75-0.083l-6.417-0.167l-1.917,0.417l-1.667-0.25
		l-1.083-0.333l-1.583,0.416l-1.167-0.5l-4.25,0.417l-3.583,0.083C239.333,353.84,236.917,350.844,234.5,351.342z"/>
</g>
<g id="Rockbarton">
	<path fill="none" stroke="#070102" stroke-miterlimit="10" d="M213.75,359.674c0,0,0.75,7.352,0.417,8.186s-3.25,7.668-3.583,8.084
		s-1,6.75-1.083,7.5s-0.833,8.262-1.417,8.595s-0.583,2.666-0.583,2.666l3.833,0.896l0.917-1.166l4.833-0.418l3.583,1.834
		c0,0-0.667-2.332,1.75-2.666c0.75,0.082,0.917,1.25,0.917,1.25l1.083-2.5L231,392.1l-0.167-1.834l0.333-0.416l0.167-1.916
		l0.083-1.168l0.417-0.416l-0.25-7.166l0.333-1.5l-0.167-4.334l-0.25-1.25l-0.167-2.916l-0.167-2.334l0.917-7.834l1.5-0.25
		l-0.25-1.25l0.25-2.082l0.917-4.09c0,0-0.833-0.332-5.917,2.75c-1.167,0.75-6.583,2.25-6.583,2.25s-1.583,1.084-2.5,1.834
		C218.5,358.509,213.75,359.674,213.75,359.674z"/>
</g>
<g id="Cnoc_Na_Cathrach">
	<path fill="none" stroke="#070102" stroke-miterlimit="10" d="M115.667,393.764c0,0-1.833-5.994,16-10.666
		C132.833,383.43,148,383.43,148,383.43s16.333-2.832,21-2.332c1.667-0.5,7.334-2.168,11.167-6.668c1.167-0.5,11-10.832,15.333-11
		c1.333-0.166,6.833-2.998,7.5-2.832s8.417-0.257,10.75-0.924c0,0,0.75,7.352,0.417,8.186s-3.25,7.668-3.583,8.084
		s-1,6.75-1.083,7.5s-0.833,8.262-1.417,8.595c-0.584,0.332-0.583,2.666-0.583,2.666l-1.75,0.165l-0.917,2.335
		c0,0-12.417,0.928-15.25,6.345c-1.25-0.667-8.083-3.25-8.083-3.25l-5.917,0.167l-5.917,5.677l-1-1.75l1.667-0.75l1.333-2.336
		c0,0,0.333-2.33,1-3.58s-0.083-3.586-0.083-3.586s0.417,0.336-1.583,2.166c-0.083,0.668-1.083,3.834-1.083,3.834l-1.417-0.084
		l-2.083,4.168l-2.75,5.832l-2.417,1.834l-2.333-3.664l-2.167-1.92c0,0-0.917-1.662-1.167-1.83c-0.25-0.17-0.584-1.341-0.584-1.341
		s1.333-1.084,2-0.5c0,0,2.75-5.666,4.167-7.666c0.917-0.5,3-5.084,3-5.084s1.834-1.417,2.167-1.25s-0.583-1.833-0.583-1.833h-2
		l-1.083-2.333c0,0-0.916,0.333-1.333,1.583s-3,1.583-3,1.583l-2-0.416l-2.25,1.166l-2.333,0.25l-1.917-0.75l-1.917,1.167
		l-2.333,0.083l-1.75,3.25l-3-0.666l-1.5,0.585l-1.167,1.331l-2.25-2.413l-1.083-0.337h-2l-1.5-1.163l-1.583-1.168v2.5l1.083,4
		l-0.583,2.334l-0.833,1.916l-2.083-2L125,397.218c0,0-1.75,0.332-1-2.834c-0.667-0.166-2.5,1.75-2.5,1.75s3.333,4.75,2,6.25
		c-0.75,0.584-2.167,2.334-2.167,2.334L115.667,393.764z"/>
	<path fill="none" stroke="#070102" stroke-miterlimit="10" d="M123.25,405.468l-0.917,2.166l2.583,6.917l1.917,1.25l0.5-1
		c0,0,3.417-0.333,5.75,2.75c0.083,0.917,0.083,0.917,0.083,0.917l1.333-0.5l6.75,1.833l3.583-2.167l-1-3.333l-0.167-2.917
		l0.583-5.416c0,0-3.25-0.333-4,0.5s-5.583,9-5.583,9s-2.917,0.249-3-1.084S131,408.968,131,408.968s-2.667-0.834-2.25-3.084
		c-0.667-1.416-2.5-1.416-2.5-1.416L123.25,405.468z"/>
	<path fill="none" stroke="#070102" stroke-miterlimit="10" d="M145.417,417.384l6.583-6.416c0,0,1.834-5.418-0.083-6.834
		c-1.25,0.167-2.083-0.667-3.583,1c-0.583,2.25,0.25,4.417,0.25,4.417c0.5,0.417-1.25,4.417-1.25,4.417L145.417,417.384z"/>
	<path fill="none" stroke="#070102" stroke-miterlimit="10" d="M168.417,406.968l-3.833,3.083v4.417l0.25,4.833l-2.25,1.5l-1,2.833
		l-3.417,2.334c0,0-2.25,0-1.5-2s2.833-5.834,2.833-5.834l4.167-2l3.167-3.25l-0.667-3.5L168.417,406.968z"/>
</g>
<g id="Barna">
	<path fill="none" stroke="#040000" stroke-miterlimit="10" d="M223,336.68l-14-6l-2.75-5.25L149,306.68l-6.25,0.25l-2.25-5h-2.25
		l-1.75-1.75l-13.625-4.125l-0.625,1.625l-1.25-0.125l-7.125,6l-2.375-0.25l-0.125,4l-0.5,2.75l-2.75-0.125l-1.875,0.125l-1.25,1
		l-1,1.375l-0.5,1.75l-0.625-0.125l-2.5,4.25l-1.125-0.625l-0.25-1l-2.625,0.875v10.75l4.25,5.375l3.75,4.625l-0.5,3.875l1.625,0.75
		l0.5,2.875l1.875-0.25l-0.125,3.5l2.5,4.875h0.875l-0.375,2l-1,0.125l-0.375,2.5l-0.25,1.25l0.625,2.125l2.25,1.25l-3.375,2.125
		l-1,1.5l0.125,1.25l0.75,2.375l0.75,0.875L109,374.43l1.375,1.875l1.25,4.875l0.5,6.375l3.542,6.209c0,0-1.833-5.994,16-10.666
		C132.833,383.43,148,383.43,148,383.43s16.333-2.832,21-2.332c1.667-0.5,7.334-2.168,11.167-6.668c1.167-0.5,11-10.832,15.333-11
		c1.333-0.166,6.833-2.998,7.5-2.832s8.417-0.257,10.75-0.924c0.583-2,2.5-6.588,3.25-8.41c0.333-1.166,0.542-6.375,1.375-8.709
		C218.542,341.223,222.5,336.43,223,336.68z"/>
</g>
<circle fill="#B2113A" cx="153.299" cy="349.299" r="5.5"/>
<circle fill="#B2113A" cx="302.297" cy="315.298" r="5.5"/>
<circle fill="#A15789" cx="257.799" cy="329.299" r="5.5"/>
<circle fill="#B2113A" cx="257.299" cy="329.299" r="5.5"/>
<circle fill="#B2113A" cx="276.799" cy="331.466" r="5.5"/>
<circle fill="#B2113A" cx="350.966" cy="303.966" r="5.5"/>
<circle fill="#6D0932" cx="249.715" cy="287.715" r="7.25"/>
<circle fill="#6D0932" cx="279.549" cy="363.048" r="7.25"/>
<circle fill="#6D0932" cx="208.417" cy="281.765" r="7.25"/>
<circle fill="#470616" cx="445.798" cy="308.299" r="11.5"/>
<circle fill="#470616" cx="454.264" cy="133.777" r="11.5"/>
<circle fill="#6D0932" cx="455.381" cy="161.077" r="7.25"/>
<circle fill="#B2113A" cx="456.265" cy="183.943" r="5.5"/>
<text transform="matrix(1 0 0 1 470.6018 137.2861)" fill="#939393" font-family="'AdobeSongStd-Light-GBpc-EUC-H'" font-size="12">24 h</text>
<text transform="matrix(1 0 0 1 470.6018 162.2861)" fill="#939393" font-family="'AdobeSongStd-Light-GBpc-EUC-H'" font-size="12">7 days</text>
<text transform="matrix(1 0 0 1 470.6018 187.2861)" fill="#939393" font-family="'AdobeSongStd-Light-GBpc-EUC-H'" font-size="12">30 days</text>
<circle fill="#B2113A" cx="305.132" cy="336.466" r="5.5"/>
</svg>
